<?xml version="1.0" encoding="UTF-8"?>
<svg id="Layer_1" data-name="Layer 1" xmlns="http://www.w3.org/2000/svg" viewBox="0 0 622 622">
  <defs>
    <style>
      .cls-1 {
        fill: #78403e;
      }

      .cls-1, .cls-2 {
        stroke-width: 0px;
      }

      .cls-2 {
        fill: #7a3f3d;
      }
    </style>
  </defs>
  <path class="cls-2" d="m515.56,141.77h-22.55v22.82c0,43.08-.03,86.15.11,129.23.02,4.79-1.29,6.19-6.13,6.14-22.63-.25-45.27-.23-67.9-.01-4.19.04-6.54-1.33-8.82-4.77-22.31-33.64-49.91-62.25-82.83-85.6-36.06-25.57-75.91-43.15-118.53-54.36-15.37-4.04-30.73-8.34-46.36-11.05-10.63-1.85-21.39-2.97-32.38-2.79-6.8.12-6.81.03-6.81,6.8v30.73c-.01,37.86,0,75.7-.02,113.56,0,2.28-.21,4.57-.35,7.38h-5.8c-10.15,0-20.31-.09-30.46.09-1.43.03-4.03,1.29-4.07,2.08-.32,6.71-.18,13.44-.18,20.55h40.87v6.77c0,47.77,0,95.53.01,143.3,0,1.66-.29,3.41.15,4.96.32,1.11,1.59,2.75,2.48,2.79,6.59.23,13.19.12,20.41.12v-158.19h238.77c-5.81-6.7-11.09-12.46-15.94-18.55-2.44-3.06-5.11-4-8.91-4-68.91.1-137.81.07-206.72.08h-6.99v-134.11c1.8.15,3.28.14,4.7.41,15.01,2.86,30.13,5.25,44.98,8.76,39.09,9.25,76.08,23.74,109.8,45.91,45.64,29.99,79.34,70.54,103.96,118.83,21.58,42.32,38.08,86.59,49.03,132.83h0c.31,1.32.62,2.62.92,3.93.67,2.93,1.56,4.25,4.77,4.22,15.98-.14,31.95-.07,47.93-.1.94,0,1.88-.3,2.86-.46V187.25h0s0-45.48,0-45.48Zm-22.95,315.46c-.22.03-.44.06-.65.09-.43.06-.84.11-1.24.17h-.01c-.39.05-.78.1-1.15.15-.19.02-.37.05-.55.07-.36.05-.7.09-1.03.12-.33.04-.65.07-.95.1-.24.02-.46.04-.68.06-.2.02-.39.03-.58.04-.15.01-.3.02-.44.02-.13.01-.26.01-.38.01-.45.01-.86.01-1.24-.02-.18-.01-.35-.03-.51-.05-.17-.02-.34-.05-.5-.08-.12-.02-.24-.05-.36-.08s-.23-.06-.34-.1c-.05-.02-.1-.04-.16-.06-.05-.01-.1-.03-.15-.06-.07-.03-.14-.06-.21-.09-.25-.12-.49-.26-.7-.42-.15-.12-.3-.25-.44-.39-.09-.09-.19-.18-.27-.28-.13-.15-.26-.32-.37-.5-.05-.06-.09-.13-.13-.2-.62-.97-1.13-2.3-1.68-4.07-.05-.16-.1-.32-.15-.49-.33-1.08-.68-2.31-1.07-3.71-11.74-41.85-26.47-82.51-47.22-120.83-.54-.99-.92-2.07-1.63-3.66h64.79v134.26Z"/>
  <path class="cls-1" d="m311,622c-83.07,0-161.17-32.35-219.91-91.09S0,394.07,0,311,32.35,149.83,91.09,91.09,227.93,0,311,0s161.17,32.35,219.91,91.09,91.09,136.84,91.09,219.91-32.35,161.17-91.09,219.91-136.84,91.09-219.91,91.09Zm0-598C152.75,24,24,152.75,24,311s128.75,287,287,287,287-128.75,287-287S469.25,24,311,24Z"/>
</svg>